<?xml version="1.0" encoding="utf-8"?>
<!-- Generator: Adobe Illustrator 19.1.0, SVG Export Plug-In . SVG Version: 6.00 Build 0)  -->
<svg version="1.1" id="Layer_1" xmlns="http://www.w3.org/2000/svg" xmlns:xlink="http://www.w3.org/1999/xlink" x="0px" y="0px"
	 viewBox="0 0 612 792" style="enable-background:new 0 0 612 792;" xml:space="preserve">
<style type="text/css">
	.st0{fill:#FFFFFF;}
	.st1{opacity:0.65;fill:#CCE5E6;}
	.st2{fill:#F26C6A;}
</style>
<g>
	<g>
		<path class="st0" d="M354.3,366.1c-6.3-25.7-32.3-41.4-58-35.1c-25.7,6.3-41.4,32.3-35.1,58c5,20.4,22.4,34.5,42.1,36.3l26.5,42.2
			l3.9-49.7C350.5,407,359.3,386.5,354.3,366.1z"/>
		<path class="st1" d="M333.8,417.8l-3.9,49.7l-4.1-6.5l3.4-43.1c16.7-10.8,25.5-31.3,20.5-51.7c-5.2-21.1-23.6-35.4-44.2-36.4
			c22.4-1.1,43.2,13.8,48.8,36.4C359.3,386.5,350.5,407,333.8,417.8z"/>
	</g>
	<g>
		<path class="st2" d="M324.7,347.9c-9.7-3.6-19.9,5.3-20.7,12.2c0,0.2,0,0.4-0.1,0.7c-0.1-0.2-0.3-0.3-0.4-0.5
			c-4.1-5.6-17.4-7.3-22.9,0.5c-16.7,23.6,35.2,50.4,35.2,50.4S349.3,357,324.7,347.9z"/>
		<path class="st2" d="M315.9,411.2c0,0-1-0.5-2.8-1.5c5.2-8.8,30.1-53.6,8-61.8c-0.9-0.3-1.9-0.6-2.8-0.7c2.1-0.3,4.3-0.1,6.4,0.7
			C349.3,357,315.9,411.2,315.9,411.2z"/>
	</g>
</g>
</svg>
