<?xml version="1.0" encoding="utf-8"?>
<!-- Generator: Adobe Illustrator 19.1.0, SVG Export Plug-In . SVG Version: 6.00 Build 0)  -->
<svg version="1.1" id="Layer_1" xmlns="http://www.w3.org/2000/svg" xmlns:xlink="http://www.w3.org/1999/xlink" x="0px" y="0px"
	 viewBox="0 0 612 792" style="enable-background:new 0 0 612 792;" xml:space="preserve">
<style type="text/css">
	.st0{fill:#E6E7E8;}
	.st1{fill:#FBD508;}
	.st2{opacity:0.65;fill:url(#SVGID_1_);}
	.st3{fill:#E4B69D;}
	.st4{fill:#CEA28B;}
	.st5{fill:#6061A7;}
	.st6{fill:#41395F;}
	.st7{fill:#3D3D5A;}
</style>
<path class="st0" d="M405.3,200.7L275.2,176c-17.8-3.4-35,8.3-38.4,26.1l-39.9,210.2c-0.2,1.1-0.4,2.3-0.5,3.4
	c-1.4,16.5,9.8,31.8,26.4,35l-2.2,33c-0.6,9.6,2.8,18.5,8.9,25.1l-5,75.9c-8.6,1.1-14.2,2.6-14.2,2.6l-1.9,30.7l33.4,0v0l60.3,0.3
	l2-24.7c0,0-3.6-0.8-9.1-2l4.6-69.5c15-0.9,29.1-12.8,29.9-27.6l0-0.3c0-0.2,0-0.4,0-0.6l1.5-22.4l21.9,4.2
	c17.8,3.4,35-8.3,38.4-26.1l39.9-210.2c0.2-1.1,0.4-2.3,0.5-3.4C433.3,219.2,422,203.9,405.3,200.7z M308.8,467l4.2,0.8l-1.2,5.9
	l-3.4-0.2L308.8,467z"/>
<g>
	<g>
		<path class="st1" d="M183.6,414.3l39.9-210.2c3.4-17.8,20.6-29.5,38.4-26.1L392,202.8c17.8,3.4,29.5,20.6,26.1,38.4l-39.9,210.2
			c-3.4,17.8-20.6,29.5-38.4,26.1l-130.1-24.7C191.9,449.3,180.2,432.1,183.6,414.3z"/>

			<linearGradient id="SVGID_1_" gradientUnits="userSpaceOnUse" x1="211.9151" y1="382.13" x2="370.0051" y2="655.95" gradientTransform="matrix(0.9978 6.639532e-02 -6.639532e-02 0.9978 45.0092 -209.4362)">
			<stop  offset="0" style="stop-color:#FFFFFF"/>
			<stop  offset="0.1277" style="stop-color:#FFFCF8"/>
			<stop  offset="0.2633" style="stop-color:#FFF6EB"/>
			<stop  offset="0.4026" style="stop-color:#FFEED7"/>
			<stop  offset="0.5445" style="stop-color:#FFE3BE"/>
			<stop  offset="0.6883" style="stop-color:#FFD59D"/>
			<stop  offset="0.8337" style="stop-color:#FEC578"/>
			<stop  offset="0.978" style="stop-color:#FCB348"/>
			<stop  offset="1" style="stop-color:#FBB040"/>
		</linearGradient>
		<path class="st2" d="M183.6,414.4l39.9-210.2c3.4-17.8,20.6-29.5,38.4-26.1L392,202.8c17.8,3.4,29.5,20.6,26.1,38.4l-39.9,210.2
			c-3.4,17.8-20.6,29.5-38.4,26.1l-130.1-24.7C191.9,449.3,180.2,432.2,183.6,414.4z"/>
	</g>
	<g>
		<path class="st3" d="M299.8,469.6l-1.3,6.2l-3.4-0.2l7-105.7c0.4-5.8-4.1-10.8-9.9-11.1c-5.7-0.3-10.5,4.3-10.9,10.1l-3.9,58.3
			l-1.1-0.1l4.7-70.6c0.4-5.7-3.8-10.9-9.5-11.4c-5.8-0.5-10.9,3.9-11.3,9.7l-4.7,71l-1.1-0.1l4.1-61.5c0.4-5.7-3.8-10.9-9.5-11.4
			c-5.8-0.5-10.9,3.9-11.3,9.7l-4.1,61.8l-1.1-0.1l2.3-35.3c0.4-5.7-3.8-10.9-9.5-11.4c-5.8-0.5-10.9,3.9-11.3,9.7l-6.6,98.7
			c-0.6,9.6,2.8,18.5,8.9,25.1L209.3,615l70.8,4.7l6.4-96.5c15-0.9,29.1-12.8,29.9-27.6l1.5-22.5L299.8,469.6z"/>
		<g>
			<path class="st4" d="M276.8,354.5l-4.7,71l5.2,2.5l2.7-57.7c0.2-2.9,0.9-13.3,0.9-13.3c0.3-4.9-2.8-9.3-7.4-10.7
				C275.7,348.3,277.1,351.2,276.8,354.5z"/>
			<path class="st4" d="M298,368.3l-7,105.7l4.1,2.4l0.4-5.3l6.7-100.4c0.3-4.9-2.8-9.3-7.4-10.7C296.9,362.1,298.2,365,298,368.3z"
				/>
			<path class="st4" d="M316.3,496.5l1.6-23.3l-3.8-0.8l-1.8,21.7c-0.8,14.7-14.9,26.6-29.9,27.6l-4.8,71.6l-66.5-5.2l-0.1,2.1
				l70.8,4.7l4.7-70.9C301.5,523.2,315.5,511.3,316.3,496.5z"/>
			<path class="st4" d="M254.2,426.4l4-60.5c0.6-9.7-5.4-11.4-7.3-12c2.2,2.1,3.5,5,3.3,8.3l-4.1,61.8L254.2,426.4z"/>
			<path class="st4" d="M229.4,422.6l2.9,2.3l2.4-35.6c0.6-8.4-5.5-10.1-7.4-10.7c2.2,2.1,3.5,5,3.3,8.3l-2.4,35.6L229.4,422.6z"/>
		</g>
		<path class="st5" d="M195.1,620l88.8,0l2-24.7c0,0-38.8-10-56.7-9.9s-32.2,3.9-32.2,3.9L195.1,620z"/>
		<path class="st6" d="M228.5,620l60.3,0.3l2-24.7c0,0-49.1-11.1-62.4-10.4V620z"/>
	</g>
</g>
<g>
	<g>
		<path class="st7" d="M254.1,264.7c1.6-9,9.3-14.3,18.2-12.7c9,1.6,14.5,9.1,12.9,18.1c-1.6,9-9.3,14.3-18.3,12.7
			C258,281.3,252.6,273.7,254.1,264.7z M278.7,269c1-5.6-1.9-10.4-7.4-11.4c-5.5-1-9.8,2.6-10.7,8.2c-1,5.5,1.8,10.4,7.3,11.4
			C273.5,278.2,277.8,274.6,278.7,269z"/>
		<path class="st7" d="M289.1,280.6l2-11.3l-3.6-0.6l0.9-5l3.6,0.6l1-5.9l5.7,1l-1,5.9l4.4,0.8l-0.9,5l-4.4-0.8l-1.7,9.7
			c-0.2,1.3,0.3,2.5,1.6,2.7c0.8,0.1,1.7,0,2.1-0.3l0.5,4.5c-1,0.6-2.6,1-5,0.6C290.2,286.9,288.4,284.5,289.1,280.6z"/>
		<path class="st7" d="M316.7,291l2.3-13.1c0.5-3-0.9-4.2-3.3-4.6c-2.2-0.4-4.1,0.6-5.4,1.7l-2.5,14.5l-5.7-1l5.2-29.8l5.7,1
			l-1.9,11c1.7-1.4,4.7-2.6,8.2-2c4.7,0.8,6.6,3.8,5.8,8l-2.7,15.3L316.7,291z"/>
		<path class="st7" d="M328.5,281.9c1.1-6.3,6.6-10.5,13.1-9.4c6.4,1.1,10,6.7,8.7,13.8l-0.2,1.2l-16-2.8c-0.1,2.8,1.7,5.4,5.3,6.1
			c1.8,0.3,4.5,0,6.1-1.1l1.9,4.1c-2.5,1.6-6.1,2-9.4,1.4C331.5,294.1,327.3,288.8,328.5,281.9z M340.9,277
			c-3.5-0.6-5.5,1.8-6.1,3.9l10.6,1.9C345.6,280.7,344.6,277.7,340.9,277z"/>
		<path class="st7" d="M352.7,297.2l3.8-21.6l5.7,1l-0.5,2.9c1.9-1.7,4.8-2.8,7.5-2.3l-1,5.5c-0.4-0.2-0.9-0.3-1.5-0.4
			c-1.9-0.3-4.6,0.3-5.7,1.5l-2.5,14.3L352.7,297.2z"/>
	</g>
</g>
</svg>
