<?xml version="1.0" encoding="utf-8"?>
<!-- Generator: Adobe Illustrator 19.1.0, SVG Export Plug-In . SVG Version: 6.00 Build 0)  -->
<svg version="1.1" id="Layer_1" xmlns="http://www.w3.org/2000/svg" xmlns:xlink="http://www.w3.org/1999/xlink" x="0px" y="0px"
	 viewBox="0 0 612 792" style="enable-background:new 0 0 612 792;" xml:space="preserve">
<style type="text/css">
	.st0{fill:#E6E7E8;}
	.st1{fill:#FBD508;}
	.st2{opacity:0.65;fill:url(#SVGID_1_);}
	.st3{fill:#7D4921;}
	.st4{fill:#8E572A;}
	.st5{fill:#AC8457;}
	.st6{fill:#A46C35;}
	.st7{fill:#FFFFFF;}
	.st8{fill:#96A692;}
	.st9{fill:#747974;}
	.st10{fill:#BCBEC0;stroke:#D1D3D4;stroke-miterlimit:10;}
	.st11{fill:#414042;}
	.st12{fill:#3D3D5A;}
</style>
<path class="st0" d="M454.5,527l-1.7,0.2v-11.6l-6,0.5l-3.5-25.1l16.6-48.2c1.5-2.9,1.7-6.5,0.1-9.6l-3-6c0.4-1.9,0.2-3.9-0.5-5.9
	l-3-7.6c0.2-2-0.2-4.2-1.3-6.1l-2.9-5.2c1-3.2,0.5-6.9-1.7-9.8l-24.9-31.7c-1.9-2.5-4.9-4-8-4.1l-28.4-0.8c-2-0.1-4,0.5-5.7,1.5
	l-19.7-190c-1.9-18.4-18.3-31.7-36.7-29.8l-130.5,13.5c-17.2,1.8-30,16.4-30,33.3c0,1.1,0.1,2.3,0.2,3.5l22,211.5
	c1.9,18.4,18.3,31.7,36.7,29.8L341,417l10.5,40.8l9,15l23.4,20.5l0.5,3.4l3.5,24.5l-10.4,0.9l1.6,10.9h-3.9l12.4,121.4h24.8h54.2
	L454.5,527z M382.8,382.5c0-0.9,0-1.9-0.1-2.8l0,0.2l5.2-2.3l0.2-0.1l0.5-0.2l9.4,0.3c-0.1,0.3-0.3,0.5-0.4,0.8l-8.2,16.9
	c-1.6,3.3-1.3,7.1,0.5,10.1c0.6,0.9,1.3,1.8,2.1,2.5l-0.3,0.6c-1.6,3.3-1.3,7.1,0.5,10.1c1,1.7,2.5,3.1,4.4,4c1,0.5,2.1,0.8,3.1,1
	l1.5-1.2v0l-4.4,3.4l-13.9,2.8l-16.5-9l-2.5-6.8C375.2,407.2,382.8,395.5,382.8,382.5z M416.5,405.7l0.3-0.1l-1.6,5.7l-2.4,1.8
	L416.5,405.7z M403.9,377.7l-0.2,0l5.3,0.1L403.9,377.7z"/>
<g>
	<g>
		<path class="st1" d="M172.3,401.5l-22-211.5c-1.9-18.4,11.4-34.8,29.8-36.7l130.5-13.5c18.4-1.9,34.8,11.4,36.7,29.8l22,211.5
			c1.9,18.4-11.4,34.8-29.8,36.7L209,431.3C190.7,433.2,174.2,419.9,172.3,401.5z"/>
		<linearGradient id="SVGID_1_" gradientUnits="userSpaceOnUse" x1="181.1869" y1="149.3761" x2="338.4628" y2="421.786">
			<stop  offset="0" style="stop-color:#FFFFFF"/>
			<stop  offset="0.1277" style="stop-color:#FFFCF8"/>
			<stop  offset="0.2633" style="stop-color:#FFF6EB"/>
			<stop  offset="0.4026" style="stop-color:#FFEED7"/>
			<stop  offset="0.5445" style="stop-color:#FFE3BE"/>
			<stop  offset="0.6883" style="stop-color:#FFD59D"/>
			<stop  offset="0.8337" style="stop-color:#FEC578"/>
			<stop  offset="0.978" style="stop-color:#FCB348"/>
			<stop  offset="1" style="stop-color:#FBB040"/>
		</linearGradient>
		<path class="st2" d="M172.3,401.6l-22-211.5c-1.9-18.4,11.4-34.8,29.8-36.7l130.5-13.5c18.4-1.9,34.8,11.4,36.7,29.8l22,211.5
			c1.9,18.4-11.4,34.8-29.8,36.7L209,431.4C190.7,433.3,174.2,419.9,172.3,401.6z"/>
	</g>
	<path class="st3" d="M378.8,420.5c-1.8-3-2.1-6.8-0.5-10.1l8.2-16.9c1.5-3.1,4.5-5.3,7.9-5.8l5-0.8l6.5,12l-2.5,8.7l-0.4,0.1
		l-3.7,7.7l-13,10c-1.1-0.2-2.1-0.5-3.1-1C381.3,423.6,379.8,422.2,378.8,420.5z"/>
	<path class="st4" d="M404.2,395.7l-3.9-0.1l-5.2,10.8c-2.6,5.3-8.9,7.4-14.1,4.9c-1.9-0.9-3.4-2.3-4.4-4c-1.8-3-2.1-6.8-0.5-10.1
		l8.2-16.9c0.1-0.3,0.3-0.5,0.4-0.8l5.8,0.2l5.1,0.1L404.2,395.7z"/>
	<path class="st5" d="M375.7,529l-5.1-33.8l-23.4-20.5l-9-15L326.4,414c-0.2-0.6-0.3-1.1-0.4-1.7l0,0l0,0c-0.3-2.1-0.1-4.3,0.9-6.2
		l3.8-14.2c2.5-5.3,8.8-7.6,14.1-5.1c5.3,2.5,7.6,8.8,5.1,14.1l-0.8,9.6l4,11l16.5,9l13.9-2.8l18.4-14.1L406,399l-10.4-19.1
		l-20.4-0.6l-5.9,2.6l-2.4-22.3c1.7-1,3.7-1.6,5.8-1.5l28.4,0.8c3.1,0.1,6.1,1.6,8,4.1l24.9,31.7c2.2,2.9,2.8,6.5,1.7,9.8l2.9,5.2
		c1.1,1.9,1.5,4,1.3,6.1l3,7.6c0.8,1.9,0.9,4,0.5,5.9l3,6c1.6,3.2,1.4,6.7-0.1,9.6L429.9,493l5.1,36H375.7z"/>
	<g>
		<polygon class="st6" points="368.6,377.6 379.4,376.4 380.1,375.8 396.6,376.3 407.2,395.8 404.2,412.2 388.3,424.2 387.6,424.4
			401.9,413.4 406,398.8 395.6,379.7 375.3,379.1 374.6,379.7 369.4,381.9 		"/>
		<path class="st6" d="M326.8,405.9l3.8-14.2c1.3-2.8,3.6-4.7,6.3-5.5c-0.6,0.7-1.1,1.4-1.5,2.2l-3.8,14.2c-0.9,2-1.2,4.1-0.9,6.2
			l0,0l0,0c0.1,0.6,0.2,1.1,0.4,1.7l11.8,45.8l9,15l23.4,20.5l4.4,37.3h-4.4l-4.9-34l-23.4-20.5l-9-15l-11.8-45.8
			c-0.2-0.6-0.3-1.1-0.4-1.7l0,0l0,0C325.6,410.1,325.9,407.9,326.8,405.9z"/>
	</g>
	<polygon class="st7" points="439.5,563 370,563 364.2,524.1 439.5,517.6 	"/>
	<g>
		<g>
			<polygon class="st8" points="453.4,656.3 374.4,656.3 362,535 441,535 			"/>
			<polygon class="st9" points="453.4,656.3 399.2,656.3 386.8,535 441.2,529 			"/>
		</g>
		<g>
			<line class="st10" x1="397.6" y1="533.8" x2="410" y2="656.3"/>
			<line class="st10" x1="405.4" y1="532.9" x2="417.8" y2="656.3"/>
			<line class="st10" x1="413.2" y1="532.1" x2="425.6" y2="656.3"/>
			<line class="st10" x1="421" y1="531.2" x2="433.4" y2="656.3"/>
			<line class="st10" x1="428.8" y1="530.4" x2="441.2" y2="656.3"/>
			<line class="st10" x1="436.6" y1="529.5" x2="449.1" y2="656.3"/>
			<line class="st10" x1="389.7" y1="535" x2="402.2" y2="656.3"/>
			<line class="st10" x1="381.9" y1="535" x2="394.3" y2="656.3"/>
			<line class="st10" x1="374.1" y1="535" x2="386.5" y2="656.3"/>
			<line class="st10" x1="366.3" y1="535" x2="378.7" y2="656.3"/>
		</g>
	</g>
	<g>
		<circle class="st11" cx="372.5" cy="545.2" r="4.9"/>
		<path d="M377.4,545.2c0,2.7-2.2,4.9-4.9,4.9c-0.2,0-0.4,0-0.5,0c2.4-0.3,4.4-2.3,4.4-4.9c0-2.5-1.9-4.6-4.4-4.8c0.2,0,0.4,0,0.5,0
			C375.2,540.3,377.4,542.5,377.4,545.2z"/>
	</g>
	<g>
		<circle class="st11" cx="374.7" cy="558.1" r="4.9"/>
		<path d="M379.6,558.1c0,2.7-2.2,4.9-4.9,4.9c-0.2,0-0.4,0-0.5,0c2.4-0.3,4.4-2.3,4.4-4.9c0-2.5-1.9-4.6-4.4-4.8c0.2,0,0.4,0,0.5,0
			C377.4,553.2,379.6,555.4,379.6,558.1z"/>
	</g>
</g>
<g>
	<g>
		<path class="st12" d="M188.8,208.6l-3.7-29.8l6.3-0.8l3.7,29.8L188.8,208.6z"/>
		<path class="st12" d="M227.1,203.8l-0.3-2.8c-1.4,2.4-3.6,3.8-6.2,4.1c-5.4,0.7-10.1-2.9-11-10.1c-0.9-7.1,2.6-11.9,8.1-12.5
			c2.5-0.3,5.1,0.5,7.1,2.5l-1.4-11l5.7-0.7l3.7,29.8L227.1,203.8z M226.3,196.8l-1-7.6c-1.1-1.3-3.3-2.1-5.2-1.8
			c-3.2,0.4-5.1,3.2-4.7,7c0.5,3.7,3,6,6.2,5.6C223.6,199.7,225.5,198.4,226.3,196.8z"/>
		<path class="st12" d="M235.7,191.7c-0.8-6.1,2.9-11.8,10-12.7c7.1-0.9,12.1,3.7,12.8,9.9c0.8,6.2-2.9,11.9-10,12.8
			C241.5,202.5,236.5,197.9,235.7,191.7z M252.7,189.6c-0.4-3.3-2.8-6-6.3-5.6s-5.1,3.6-4.7,6.9c0.4,3.4,2.8,6,6.3,5.6
			S253.1,193,252.7,189.6z"/>
		<path class="st12" d="M278.7,197.3l-1.6-13c-0.4-3-2.1-3.8-4.5-3.5c-2.2,0.3-3.8,1.7-4.6,3.2l1.8,14.5l-5.7,0.7l-2.7-21.6l5.7-0.7
			l0.4,2.8c1.2-1.8,3.6-3.9,7.1-4.3c4.7-0.6,7.3,1.8,7.9,6l1.9,15.2L278.7,197.3z"/>
		<path class="st12" d="M289.4,178.4l-2.7-1.7c1.3-0.9,2.8-3,2.9-4.7c-0.1,0.1-0.5,0.2-0.8,0.3c-1.7,0.2-3.2-1-3.4-2.8
			c-0.2-2,1.2-3.8,3-4c2.1-0.3,4.2,1.1,4.6,4.1C293.4,172.8,291.9,176,289.4,178.4z"/>
		<path class="st12" d="M301.2,189.1l-1.4-11.3l-3.6,0.4l-0.6-5l3.6-0.4l-0.7-5.9l5.7-0.7l0.7,5.9l4.4-0.5l0.6,5l-4.4,0.5l1.2,9.7
			c0.2,1.3,1,2.3,2.3,2.1c0.8-0.1,1.6-0.5,1.9-0.9l1.7,4.1c-0.8,0.9-2.2,1.7-4.6,2C304.1,194.7,301.7,192.9,301.2,189.1z"/>
		<path class="st12" d="M205.9,241.8c-0.8-6.6,3.4-11.9,10-12.7c4.4-0.6,7.3,1,9,2.8l-3.3,3.9c-1.2-1.4-2.9-2-4.8-1.8
			c-3.4,0.4-5.5,3.2-5.1,7c0.5,3.8,3.2,6,6.6,5.6c2-0.2,3.4-1.3,4.3-2.9l4.1,3c-1.2,2.2-3.6,4.4-8,5
			C212.1,252.6,206.7,248.5,205.9,241.8z"/>
		<path class="st12" d="M243.8,248.1l-0.3-2.2c-1.3,1.9-3.7,3.3-6.5,3.6c-3.4,0.4-7.8-1.4-8.4-6.2c-0.6-5,3.2-7.5,6.6-7.9
			c2.9-0.4,5.5,0.3,7.2,1.8l-0.4-2.9c-0.3-2.2-2.3-3.4-5.2-3c-2.3,0.3-4.4,1.4-6,3.3l-2.6-3.5c2.3-2.7,5.6-4.1,9-4.6
			c4.9-0.6,9.7,0.8,10.4,7l1.7,13.9L243.8,248.1z M243.2,242.9l-0.3-2.7c-1.1-1.1-3-1.5-4.8-1.3c-2.2,0.3-3.9,1.7-3.7,3.8
			c0.3,2,2.2,2.9,4.5,2.7C240.7,245.1,242.4,244.3,243.2,242.9z"/>
		<path class="st12" d="M255.1,246.6l-2.7-21.6l5.7-0.7l0.4,2.9c1.3-2.1,3.8-4,6.4-4.3l0.7,5.5c-0.4,0-1,0-1.6,0.1
			c-1.9,0.2-4.2,1.6-5,3.1l1.8,14.2L255.1,246.6z"/>
		<path class="st12" d="M268.5,234c-0.8-6.2,3.2-11.9,9.7-12.7c6.4-0.8,11.4,3.5,12.3,10.5l0.2,1.2l-16,2c0.7,2.7,3.2,4.7,6.8,4.2
			c1.8-0.2,4.3-1.4,5.5-2.9l3,3.3c-1.9,2.2-5.2,3.7-8.5,4.1C274.9,244.7,269.3,240.9,268.5,234z M278.8,225.8
			c-3.5,0.4-4.7,3.3-4.7,5.4l10.6-1.3C284.3,227.9,282.5,225.3,278.8,225.8z"/>
		<path class="st12" d="M295.1,231.8l-3.5-20l6.8-0.9l1.6,20.2L295.1,231.8z M294.8,238.5c-0.2-2,1.2-3.8,3.1-4.1
			c2-0.2,3.8,1.2,4.1,3.2c0.2,1.9-1.2,3.8-3.2,4C296.9,241.9,295.1,240.4,294.8,238.5z"/>
		<path class="st12" d="M215.2,298l-3.7-29.8l6.3-0.8l3.7,29.8L215.2,298z"/>
		<path class="st12" d="M234.8,267.9c-0.2-1.9,1.1-3.5,3-3.8c1.9-0.2,3.6,1,3.8,2.9c0.2,1.9-1.1,3.6-3,3.8
			C236.8,271,235,269.7,234.8,267.9z M235.4,304.1l-0.2-4.7c0.4,0,0.9,0,1.3,0c1.7-0.2,2.7-1.4,2.4-3.8l-2.8-22.1l5.7-0.7l2.8,22.1
			c0.6,4.9-1.5,8.5-6.7,9.1C236.8,304.2,236.1,304.2,235.4,304.1z"/>
		<path class="st12" d="M264.6,291.8l-0.3-2.7c-1.3,1.8-3.7,3.8-7.2,4.2c-4.7,0.6-7.3-1.7-7.8-5.9l-1.9-15.3l5.7-0.7l1.6,13.1
			c0.4,3,2.1,3.8,4.5,3.5c2.2-0.3,3.8-1.7,4.6-3.1l-1.8-14.6l5.7-0.7l2.7,21.6L264.6,291.8z"/>
		<path class="st12" d="M273.7,287.8l2-4.3c1.7,1.3,5.1,2.3,7.8,2c2.5-0.3,3.5-1.4,3.3-2.8c-0.2-1.5-2.2-1.6-4.6-1.8
			c-3.8-0.2-8.7-0.6-9.3-5.8c-0.5-3.6,2.3-7.2,8-7.9c3.7-0.5,6.7,0.4,9.1,1.9l-1.8,4.2c-1.5-1.2-4.1-2-6.7-1.7
			c-2.1,0.3-3.3,1.4-3.1,2.6c0.2,1.2,1.9,1.4,4.4,1.6c3.8,0.2,8.9,0.7,9.6,6.1c0.5,3.9-2.5,7.3-8.5,8.1
			C280,290.4,276.2,289.6,273.7,287.8z"/>
		<path class="st12" d="M297.7,282.2l-1.4-11.3l-3.6,0.4l-0.6-5l3.6-0.4l-0.7-5.9l5.7-0.7l0.7,5.9l4.4-0.5l0.6,5l-4.4,0.5l1.2,9.7
			c0.2,1.3,1,2.3,2.3,2.1c0.8-0.1,1.6-0.5,1.9-0.9l1.7,4.1c-0.8,0.9-2.2,1.7-4.6,2C300.5,287.9,298.1,286.1,297.7,282.2z"/>
		<path class="st12" d="M227.2,342.9l-3.7-29.8l5.7-0.7l3.7,29.8L227.2,342.9z"/>
		<path class="st12" d="M235.7,330.8c-0.8-6.1,2.9-11.8,10-12.7c7.1-0.9,12.1,3.7,12.8,9.9c0.8,6.2-2.9,11.9-10,12.8
			C241.4,341.6,236.5,337,235.7,330.8z M252.6,328.7c-0.4-3.3-2.8-6-6.3-5.6s-5.1,3.6-4.7,6.9c0.4,3.4,2.8,6,6.3,5.6
			S253.1,332.1,252.6,328.7z"/>
		<path class="st12" d="M269.7,337.5l-11.4-20.5l6.1-0.8l7.5,14.3l3.7-15.7l6.1-0.8l-6,22.7L269.7,337.5z"/>
		<path class="st12" d="M284.3,324.7c-0.8-6.3,3.2-11.9,9.7-12.7c6.4-0.8,11.4,3.5,12.3,10.5l0.2,1.2l-16,2c0.7,2.7,3.2,4.7,6.8,4.2
			c1.8-0.2,4.3-1.4,5.5-2.9l3,3.3c-1.9,2.2-5.2,3.7-8.5,4.1C290.6,335.5,285.1,331.7,284.3,324.7z M294.6,316.6
			c-3.5,0.4-4.7,3.3-4.7,5.4l10.6-1.3C300.1,318.6,298.3,316.1,294.6,316.6z"/>
		<path class="st12" d="M222.4,389.8l-3.7-29.8l13.9-1.7c6.5-0.8,10.5,3.1,11.2,8.3c0.6,5.2-2.4,10-8.8,10.9l-7.6,1l1.3,10.6
			L222.4,389.8z M237.3,367.5c-0.3-2.5-2.4-3.8-4.9-3.5l-6.7,0.8l1,8l6.7-0.8C236,371.7,237.7,369.9,237.3,367.5z"/>
		<path class="st12" d="M250.1,386.4l-3.7-29.8l5.7-0.7l3.7,29.8L250.1,386.4z"/>
		<path class="st12" d="M276,383.1l-0.3-2.7c-1.3,1.8-3.7,3.8-7.2,4.2c-4.7,0.6-7.3-1.7-7.8-5.9l-1.9-15.3l5.7-0.7l1.6,13.1
			c0.4,3,2.1,3.8,4.5,3.5c2.2-0.3,3.8-1.7,4.6-3.1l-1.8-14.6l5.7-0.7l2.7,21.6L276,383.1z"/>
		<path class="st12" d="M287.7,376.2l-1.4-11.3l-3.6,0.4l-0.6-5l3.6-0.4l-0.7-5.9l5.7-0.7l0.7,5.9l4.4-0.5l0.6,5l-4.4,0.5l1.2,9.7
			c0.2,1.3,1,2.3,2.3,2.1c0.8-0.1,1.6-0.5,1.9-0.9l1.7,4.1c-0.8,0.9-2.2,1.7-4.6,2C290.6,381.8,288.2,380,287.7,376.2z"/>
		<path class="st12" d="M299.6,369.2c-0.8-6.1,2.9-11.8,10-12.7c7.1-0.9,12.1,3.7,12.8,9.9c0.8,6.2-2.9,11.9-10,12.8
			C305.4,380,300.4,375.3,299.6,369.2z M316.6,367c-0.4-3.3-2.8-6-6.3-5.6s-5.1,3.6-4.7,6.9c0.4,3.4,2.8,6,6.3,5.6
			C315.4,373.6,317,370.4,316.6,367z"/>
	</g>
</g>
</svg>
