<?xml version="1.0" encoding="utf-8"?>
<!-- Generator: Adobe Illustrator 19.1.0, SVG Export Plug-In . SVG Version: 6.00 Build 0)  -->
<svg version="1.1" id="Layer_1" xmlns="http://www.w3.org/2000/svg" xmlns:xlink="http://www.w3.org/1999/xlink" x="0px" y="0px"
	 viewBox="0 0 612 792" style="enable-background:new 0 0 612 792;" xml:space="preserve">
<style type="text/css">
	.st0{fill:#E6E7E8;}
	.st1{fill:#FBD508;}
	.st2{opacity:0.65;fill:url(#SVGID_1_);}
	.st3{fill:#B5917C;}
	.st4{fill:#926D5A;}
	.st5{fill:#F3C8A0;}
	.st6{fill:#0F4F79;}
	.st7{fill:#132D45;}
	.st8{fill:#3D3D5A;}
</style>
<g>
	<path class="st0" d="M372.1,167.8c-5.9-17.2-24.6-26.4-41.8-20.6l-125.1,42.5c-17.2,5.9-26.4,24.6-20.6,41.8l57,167.9l-0.4-1
		l-8.7,4.8c-1.5,0.8-2.6,1.9-3.5,3.2c-2.9,2.4-4.9,6.1-4.9,10.2l0,4c-3.2,2.4-5.2,6.2-5.2,10.5l0,5.7c-2.5,2.4-4,5.7-4,9.4
		l-0.2,89.4l-8.9-1.4l2.1,110.4h77.5l0-0.3h0.9l11.3-97.2l-17.3-2.3l0-9.2c9.2-10.4,17-23.6,17.1-37.8l0-22.2h0l0-21.9l122.7-41.7
		c17.2-5.9,26.4-24.6,20.6-41.8L372.1,167.8z M268.6,452.1l0,23.4l-12.8-36C258.9,445,263.4,449.3,268.6,452.1z"/>
	<g>
		<g>
			<path class="st1" d="M239.9,435.8l-68.7-202.3c-5.9-17.2,3.4-35.9,20.6-41.8L317,149.3c17.2-5.9,35.9,3.4,41.8,20.6l68.7,202.3
				c5.9,17.2-3.4,35.9-20.6,41.8l-125.1,42.5C264.5,462.3,245.8,453.1,239.9,435.8z"/>
			<linearGradient id="SVGID_1_" gradientUnits="userSpaceOnUse" x1="224.05" y1="172.4122" x2="374.649" y2="433.2573">
				<stop  offset="0" style="stop-color:#FFFFFF"/>
				<stop  offset="0.1277" style="stop-color:#FFFCF8"/>
				<stop  offset="0.2633" style="stop-color:#FFF6EB"/>
				<stop  offset="0.4026" style="stop-color:#FFEED7"/>
				<stop  offset="0.5445" style="stop-color:#FFE3BE"/>
				<stop  offset="0.6883" style="stop-color:#FFD59D"/>
				<stop  offset="0.8337" style="stop-color:#FEC578"/>
				<stop  offset="0.978" style="stop-color:#FCB348"/>
				<stop  offset="1" style="stop-color:#FBB040"/>
			</linearGradient>
			<path class="st2" d="M239.9,435.8l-68.7-202.3c-5.9-17.2,3.4-35.9,20.6-41.8L317,149.2c17.2-5.9,35.9,3.4,41.8,20.6l68.7,202.3
				c5.9,17.2-3.4,35.9-20.6,41.8l-125.1,42.5C264.5,462.3,245.8,453.1,239.9,435.8z"/>
		</g>
		<g>
			<path class="st3" d="M284.3,418.7c-10.8-6.2-28.9-0.6-28.9,17.6l-0.1,41.2l-27.4-77.1l-8.7,4.8c-1.5,0.8-2.6,1.9-3.5,3.2
				c-2.9,2.4-4.9,6.1-4.9,10.2l0,4c-3.2,2.4-5.2,6.2-5.2,10.5l0,5.7c-2.5,2.4-4,5.7-4,9.4L201.3,549H267l0-11.5
				c9.2-10.4,17-23.6,17.1-37.8l0-22.2h0L284.3,418.7z"/>
			<polygon class="st4" points="247.6,455.7 247.5,478.3 255.3,478.3 255.3,477.5 			"/>
			<g>
				<path class="st5" d="M269.9,380.9c-0.7-0.2-1.3-0.3-2-0.4C268.6,380.6,269.2,380.8,269.9,380.9z"/>
				<path class="st4" d="M284.3,418.7l-4.4,78.9c0,14.2-7.8,27.4-17.1,37.8l0,11.5l-0.1,2.1h4.3l0-11.5c9.2-10.4,17-23.6,17.1-37.8
					L284.3,418.7z"/>
			</g>
			<polygon class="st6" points="194.6,646.5 272.1,646.5 273.4,549 192.4,536.2 			"/>
			<polygon class="st7" points="219.2,646.2 273,646.2 284.3,549 219.8,540.5 			"/>
		</g>
	</g>
	<g>
		<g>
			<path class="st8" d="M239.4,320.5l-8.5-29l13.6-4c6.3-1.9,11,1.4,12.5,6.5c1.5,5-0.7,10.4-7,12.2l-7.4,2.2l3,10.3L239.4,320.5z
				 M250.7,295.8c-0.7-2.4-3-3.4-5.4-2.7l-6.6,1.9l2.3,7.8l6.6-1.9C250,300.2,251.4,298.2,250.7,295.8z"/>
			<path class="st8" d="M266.4,312.5l-8.5-29l5.5-1.6l8.5,29L266.4,312.5z"/>
			<path class="st8" d="M290.1,305.6l-0.6-2.2c-0.9,2.1-3.1,3.8-5.9,4.7c-3.4,1-8-0.1-9.4-4.8c-1.4-4.9,2-8,5.3-8.9
				c2.8-0.8,5.5-0.6,7.4,0.6l-0.8-2.8c-0.6-2.1-2.9-3-5.6-2.2c-2.3,0.7-4.1,2.1-5.4,4.3l-3.2-3.1c1.9-3,4.9-5,8.2-6
				c4.8-1.4,9.7-0.8,11.5,5.3l4,13.6L290.1,305.6z M288.6,300.5l-0.8-2.6c-1.3-0.9-3.2-1-5-0.5c-2.2,0.6-3.6,2.3-3,4.3
				c0.6,2,2.7,2.6,4.9,1.9C286.5,303.1,288,302,288.6,300.5z"/>
			<path class="st8" d="M315.3,298.2l-3.7-12.7c-0.9-2.9-2.7-3.5-5-2.8c-2.2,0.6-3.5,2.4-4.1,3.9l4.2,14.1l-5.5,1.6l-6.2-21l5.5-1.6
				l0.8,2.7c0.9-2,3-4.4,6.4-5.4c4.6-1.4,7.6,0.6,8.8,4.7l4.4,14.8L315.3,298.2z"/>
			<path class="st8" d="M321.8,284.8c-1.8-6.1,1.2-12.3,7.6-14.2c6.3-1.8,11.9,1.6,13.9,8.5l0.4,1.2l-15.6,4.6
				c1.1,2.6,3.9,4.1,7.5,3.1c1.8-0.5,4-2,5-3.7l3.5,2.9c-1.5,2.5-4.5,4.5-7.8,5.5C329.9,294.4,323.8,291.6,321.8,284.8z M330.8,275
				c-3.4,1-4.2,4-3.8,6.2l10.4-3C336.6,276.2,334.4,273.9,330.8,275z"/>
			<path class="st8" d="M349.9,282.3l-3.2-11l-3.5,1l-1.4-4.8l3.5-1l-1.7-5.7l5.6-1.6l1.7,5.7l4.3-1.3l1.4,4.8l-4.3,1.3l2.8,9.5
				c0.4,1.3,1.4,2.1,2.6,1.7c0.8-0.2,1.5-0.8,1.7-1.2l2.4,3.8c-0.6,1-1.9,2-4.2,2.7C353.7,287.5,351,286.1,349.9,282.3z"/>
		</g>
	</g>
</g>
</svg>
