<?xml version="1.0" encoding="utf-8"?>
<!-- Generator: Adobe Illustrator 19.1.0, SVG Export Plug-In . SVG Version: 6.00 Build 0)  -->
<svg version="1.1" id="Layer_1" xmlns="http://www.w3.org/2000/svg" xmlns:xlink="http://www.w3.org/1999/xlink" x="0px" y="0px"
	 viewBox="0 0 612 792" style="enable-background:new 0 0 612 792;" xml:space="preserve">
<style type="text/css">
	.st0{fill:#E6E7E8;}
	.st1{fill:#FBD508;}
	.st2{opacity:0.65;fill:url(#SVGID_1_);}
	.st3{fill:#F3C8A0;}
	.st4{fill:#F0B584;}
	.st5{fill:#FFFFFF;}
	.st6{fill:#BDBBBB;}
	.st7{fill:#77777A;}
	.st8{fill:#A7A9AC;}
	.st9{fill:#3D3D5A;}
</style>
<path class="st0" d="M420.4,384.9L420.4,384.9l-15.1-212.3c-1.3-18.4-17.3-32.2-35.6-30.9l-131,9.3c-18.4,1.3-32.2,17.3-30.9,35.6
	L222.8,399v0l0,0.1c1.3,18.4,17.3,32.2,35.6,30.9l104.8-7.5l0.5,6.6l-1.6,0.1l-0.5-6.5l-0.1,0v0l-81,5.8l1.5,21.4
	c0.6,9,5,16.8,11.4,22.1l1.1,15.7l-3,0.2l2.7,37.4l-2,0.3l8.8,124.3h23.6l0,0.4l53.7-0.4h0l-9.2-137.6l-2.4,0.4l-2.1-30.1l-3.9,0.3
	l-0.6-8.5c12.9-2.6,23.8-14,24.2-26.8c0-0.8,0-1.7-0.1-2.6l-1.7-24l6.8-0.5C407.9,419.3,421.7,403.3,420.4,384.9L420.4,384.9z"/>
<g>
	<g>
		<g>
			<path class="st1" d="M209.5,401l-15.1-212.3c-1.3-18.4,12.5-34.3,30.9-35.6l131-9.3c18.4-1.3,34.3,12.5,35.6,30.9l15.1,212.3
				c1.3,18.4-12.5,34.3-30.9,35.6l-131,9.3C226.8,433.2,210.8,419.4,209.5,401z"/>
			
				<linearGradient id="SVGID_1_" gradientUnits="userSpaceOnUse" x1="246.1467" y1="-35.2722" x2="404.4965" y2="238.9977" gradientTransform="matrix(0.9975 -7.112673e-02 7.112673e-02 0.9975 -31.0029 209.4215)">
				<stop  offset="0" style="stop-color:#FFFFFF"/>
				<stop  offset="0.1277" style="stop-color:#FFFCF8"/>
				<stop  offset="0.2633" style="stop-color:#FFF6EB"/>
				<stop  offset="0.4026" style="stop-color:#FFEED7"/>
				<stop  offset="0.5445" style="stop-color:#FFE3BE"/>
				<stop  offset="0.6883" style="stop-color:#FFD59D"/>
				<stop  offset="0.8337" style="stop-color:#FEC578"/>
				<stop  offset="0.978" style="stop-color:#FCB348"/>
				<stop  offset="1" style="stop-color:#FBB040"/>
			</linearGradient>
			<path class="st2" d="M209.5,401.1l-15.1-212.3c-1.3-18.4,12.5-34.3,30.9-35.6l131-9.3c18.4-1.3,34.3,12.5,35.6,30.9L407.1,387
				c1.3,18.4-12.5,34.3-30.9,35.6l-131,9.3C226.8,433.3,210.8,419.4,209.5,401.1z"/>
		</g>
		<g>
			<path class="st3" d="M371.1,447.1l-2.3-31.4l-0.5-6.8c-0.3-3.7-1-4.8-3.6-8.3l-14.5-19.3c-4.4,0.9-9.5,4.5-11,9
				c-0.2,0.6-1.8,6.4,2.1,11.6l7.7,10.3l1.4,18.9l-1.7,0.1l-0.5-6.5l-81,5.8l1.5,21.4c0.6,9,5,16.8,11.4,22.1l1.5,21.6l66.1-4.7
				l-1-14.4C360.7,473.7,372.2,460.9,371.1,447.1z"/>
			<g>
				<g>
					
						<rect x="346.9" y="424.7" transform="matrix(-0.9975 7.112673e-02 -7.112673e-02 -0.9975 725.1174 830.2838)" class="st4" width="1.7" height="6.6"/>
					<path class="st4" d="M371.1,447.1l-2.3-31.4l-0.5-6.8c-0.3-3.7-1-4.8-3.6-8.3l-14.5-19.3c-0.8,0.2,10.2,17.5,10.2,17.5
						c2.6,3.5,3.4,4.5,3.6,8.3l0.5,6.8l2.3,31.4c1.1,13.8-10.3,26.6-24.2,29.4l1,14.4l0.1,2.1l4.2-0.3l-1-14.4
						C360.7,473.7,372.2,460.9,371.1,447.1z"/>
				</g>
			</g>
			<path class="st4" d="M268.6,448.1c-0.8-11.6,31.8-17.1,79.9-20.5l-0.2-2.9l-81,5.8L268.6,448.1z"/>
			
				<rect x="280.1" y="487.3" transform="matrix(0.9975 -7.112673e-02 7.112673e-02 0.9975 -35.6313 23.8205)" class="st5" width="73.2" height="50"/>
			<polygon class="st6" points="287.8,652 365.1,652 356,514.4 279.1,527.7 			"/>
			<polygon class="st7" points="311.5,652.4 365.1,652 356,514.4 302.3,523.7 			"/>
		</g>
	</g>
	<g>
		<circle class="st0" cx="335.8" cy="496.4" r="4.9"/>
		<path class="st8" d="M340.7,496.4c0,2.7-2.2,4.9-4.9,4.9c-0.2,0-0.4,0-0.5,0c2.4-0.3,4.4-2.3,4.4-4.9c0-2.5-1.9-4.6-4.4-4.8
			c0.2,0,0.4,0,0.5,0C338.5,491.5,340.7,493.7,340.7,496.4z"/>
	</g>
</g>
<g>
	<g>
		<path class="st9" d="M242.6,261.1l-2.6-30.1l11.9-1c9.4-0.8,16.5,4.6,17.3,13.7s-5.3,15.6-14.7,16.4L242.6,261.1z M262.6,244.2
			c-0.5-5.3-4.1-9.2-10.3-8.6l-5.5,0.5l1.6,18.8l5.5-0.5C259.9,253.9,263.1,249.3,262.6,244.2z"/>
		<path class="st9" d="M294.1,256.6l-5.9-14.5l-3.3,15.3l-6.1,0.5l-8.5-21.2l6-0.5l5.3,14.3l3.5-15.1l5.1-0.4l6.1,14.3l2.8-15l6-0.5
			l-4.8,22.4L294.1,256.6z"/>
		<path class="st9" d="M322.7,254.1l-0.2-2.3c-1.3,1.9-3.8,3.2-6.7,3.4c-3.5,0.3-7.8-1.7-8.2-6.6c-0.4-5.1,3.5-7.4,7-7.7
			c2.9-0.2,5.5,0.5,7.1,2.1l-0.3-2.9c-0.2-2.2-2.2-3.5-5.1-3.2c-2.3,0.2-4.4,1.2-6.1,3.1l-2.5-3.7c2.5-2.6,5.8-4,9.2-4.3
			c5-0.4,9.7,1.2,10.2,7.4l1.2,14.1L322.7,254.1z M322.3,248.9l-0.2-2.7c-1.1-1.2-2.9-1.7-4.8-1.5c-2.3,0.2-4,1.5-3.8,3.7
			c0.2,2,2.1,3,4.4,2.9C319.7,251,321.5,250.2,322.3,248.9z"/>
		<path class="st9" d="M334.2,253.2l-1.9-21.8l5.7-0.5l0.3,3c1.4-2.1,3.9-3.9,6.7-4.1l0.5,5.6c-0.4-0.1-1-0.1-1.6,0
			c-1.9,0.2-4.3,1.5-5.2,2.9l1.2,14.4L334.2,253.2z"/>
		<path class="st9" d="M351.7,251.6l-1.5-16.8l-3.6,0.3l-0.4-5l3.6-0.3l-0.1-1.2c-0.4-4.7,2.4-7.9,6.7-8.2c1.6-0.1,3.1,0.1,4.2,0.5
			l-0.8,4.2c-0.5-0.3-1.2-0.3-1.9-0.3c-1.6,0.1-2.6,1.3-2.4,3.4l0.1,1.1l4.4-0.4l0.4,5l-4.4,0.4l1.5,16.8L351.7,251.6z"/>
		<path class="st9" d="M243.4,315.6l-2.6-30.1l14.1-1.2c6.6-0.6,10.5,3.6,11,8.8c0.5,5.2-2.8,10-9.3,10.6l-7.7,0.7l0.9,10.7
			L243.4,315.6z M259.3,293.7c-0.2-2.5-2.2-3.9-4.8-3.7l-6.8,0.6l0.7,8.1l6.8-0.6C257.7,297.9,259.5,296.2,259.3,293.7z"/>
		<path class="st9" d="M271.4,313.2l-2.6-30.1l5.7-0.5l2.6,30.1L271.4,313.2z"/>
		<path class="st9" d="M296,311.1l-0.2-2.3c-1.3,1.9-3.8,3.2-6.7,3.4c-3.5,0.3-7.8-1.7-8.2-6.6c-0.4-5.1,3.5-7.4,7-7.7
			c2.9-0.2,5.5,0.5,7.1,2.1l-0.3-2.9c-0.2-2.2-2.2-3.5-5.1-3.2c-2.3,0.2-4.4,1.2-6.1,3.1l-2.5-3.7c2.5-2.6,5.8-4,9.2-4.3
			c5-0.4,9.7,1.2,10.2,7.4l1.2,14.1L296,311.1z M295.5,305.8l-0.2-2.7c-1.1-1.2-2.9-1.7-4.8-1.5c-2.3,0.2-4,1.5-3.8,3.7
			c0.2,2,2.1,3,4.4,2.9C292.9,308,294.7,307.2,295.5,305.8z"/>
		<path class="st9" d="M322.1,308.8l-1.1-13.2c-0.3-3-1.9-3.9-4.4-3.7c-2.3,0.2-3.9,1.6-4.7,3l1.3,14.7l-5.7,0.5l-1.9-21.8l5.7-0.5
			l0.2,2.8c1.3-1.8,3.8-3.7,7.3-4c4.8-0.4,7.3,2.1,7.7,6.3l1.3,15.4L322.1,308.8z"/>
		<path class="st9" d="M331.2,297c-0.5-6.3,3.7-11.8,10.3-12.4c6.5-0.6,11.4,3.9,12,11.1l0.1,1.3l-16.2,1.4c0.6,2.7,3,4.8,6.7,4.5
			c1.9-0.2,4.4-1.2,5.6-2.7l2.9,3.5c-2,2.2-5.3,3.5-8.7,3.8C337.2,308.1,331.8,304,331.2,297z M341.9,289.2c-3.6,0.3-4.9,3.1-5,5.3
			l10.8-0.9C347.4,291.5,345.7,288.9,341.9,289.2z"/>
		<path class="st9" d="M359.2,300.2l-1-11.4l-3.6,0.3l-0.4-5l3.6-0.3l-0.5-6l5.8-0.5l0.5,6l4.4-0.4l0.4,5l-4.4,0.4l0.9,9.8
			c0.1,1.4,0.9,2.3,2.2,2.2c0.9-0.1,1.6-0.5,1.9-0.8l1.6,4.2c-0.8,0.8-2.3,1.6-4.7,1.8C361.9,305.9,359.5,304,359.2,300.2z"/>
	</g>
</g>
</svg>
